<svg width="144" height="144" viewBox="0 0 144 144" fill="none" xmlns="http://www.w3.org/2000/svg">
<path d="M0 108.19C3.55932 110.296 7.38289 112.288 11.2695 114.031C20.558 118.198 29.9479 120.786 43.6699 122.731C53.7228 124.155 65.9679 125.191 78.6348 125.627C67.3951 130.125 64.8237 132.006 63.0557 133.67C61.831 134.822 60.9419 135.912 60.5303 137.038C60.0912 138.24 60.2294 139.384 60.833 140.504C61.4797 141.703 62.6767 142.888 64.3457 144H27C12.0885 144 3.09256e-05 131.912 0 117V108.19ZM143.69 121.101C141.715 134.066 130.518 144 117 144H68.4775C65.2148 142.489 63.3076 140.879 62.5938 139.555C62.2288 138.878 62.188 138.328 62.4082 137.725C62.6563 137.046 63.266 136.217 64.4258 135.126C66.1219 133.53 68.7733 131.53 83.7617 125.769C86.6812 125.83 89.6107 125.863 92.5283 125.856C108.714 125.816 124.085 124.641 143.69 121.101ZM144 117C144 117.682 143.974 118.357 143.925 119.026C124.153 122.629 108.754 123.816 92.5234 123.856C91.3027 123.859 90.0796 123.853 88.8564 123.844C92.2658 122.575 96.1782 121.153 100.675 119.554C112.404 115.383 127.837 110.099 144 104.665V117ZM0 89.7647C2.1039 91.9887 4.82143 94.1232 8.07715 96.0821C13.5675 99.3854 20.5203 102.109 29.9268 104.306C39.3308 106.502 51.0068 108.098 63.5762 108.858C76.1697 109.62 89.3206 109.495 109.699 106.733C119.774 105.368 131.521 103.356 144 100.796V102.556C127.596 108.068 111.9 113.44 100.005 117.669C93.268 120.064 87.8243 122.068 83.4043 123.762C69.1524 123.445 55.1644 122.34 43.9512 120.751C30.3657 118.826 21.1661 116.279 12.0889 112.207C7.88647 110.322 3.7694 108.147 0 105.859V89.7647ZM144 96.9893C131.152 99.5227 118.513 101.758 107.534 103.277C78.986 107.228 62.1939 106.369 51.9531 105.195C41.6277 104.012 38.2449 102.562 36.2871 100.854C35.2903 99.9835 34.6741 99.0673 34.376 98.127C34.0797 97.1916 34.0756 96.1622 34.4102 95.0235C35.091 92.7072 37.1005 90.0535 41.0469 86.8624C44.9737 83.6871 50.534 80.1773 57.7168 76.5342C64.8802 72.9011 73.3898 69.2505 90.4883 63.71C104.22 59.2604 122.981 53.7411 144 48.8975V96.9893ZM136.499 8.32428C141.145 13.174 144 19.7535 144 27.0001V46.8448C122.73 51.7291 103.743 57.3131 89.8721 61.8077C72.7067 67.3698 64.0944 71.0568 56.8125 74.7501C49.5504 78.4333 43.8593 82.0164 39.7891 85.3077C35.7389 88.5828 33.3449 91.5551 32.4912 94.46C32.0589 95.9314 32.0384 97.3703 32.4697 98.7315C32.8997 100.088 33.7576 101.3 34.9727 102.36C35.5278 102.845 36.1593 103.295 36.9209 103.716C34.6375 103.293 32.452 102.842 30.3818 102.358C21.1153 100.194 14.3711 97.5361 9.10742 94.3692C5.10144 91.9589 2.04735 89.3339 0 86.7032V69.7559C1.77908 66.9158 4.31339 63.897 7.63867 60.794C12.5503 56.2107 18.9558 51.6104 28.8203 46.2921C38.674 40.9796 51.5815 35.1303 77.5576 26.4112C94.1126 20.8543 115.496 14.2768 136.499 8.32428ZM117 6.10352e-05C123.83 6.10352e-05 130.067 2.53777 134.822 6.71979C114.152 12.5963 93.2074 19.049 76.9209 24.5157C50.8751 33.2582 37.8556 39.1488 27.8721 44.5313C17.8997 49.9078 11.3415 54.6028 6.27344 59.3321C3.77925 61.6596 1.68699 63.9703 0 66.2276V43.5938C1.93035 42.0417 4.01744 40.4729 6.27637 38.8799C13.8705 33.5246 23.098 28.0568 39.9043 21.1729C56.3075 14.4542 79.2295 6.62856 104.81 6.10352e-05H117ZM97.0273 6.10352e-05C74.3078 6.20388 54.0612 13.2129 39.1455 19.3223C22.2145 26.2573 12.8524 31.7954 5.12305 37.2462C3.31283 38.5227 1.60792 39.7878 0 41.043V27.0001C0 12.0885 12.0885 0.000280596 27 6.10352e-05H97.0273Z" fill="#141414"/>
<path d="M49.9 37.15V61.9L42.8 67.2H14.55V31.85H42.8L49.9 37.15ZM35.75 54.85V46H28.7V54.85H35.75ZM89.7137 31.55V66.85H54.3637V31.55H89.7137ZM75.6137 54.5V43.9H68.5137V54.5H75.6137ZM127.402 54.7V67.05H94.5016V31.7H127.402V44.05H108.652V54.7H127.402Z" fill="white"/>
<path d="M50.5 84.5V107.2L39.9 116.3H25.75L15.15 107.2V93.35V91.55V89.8V80.95H25.75H29.25V100.4L32.8 103.45L36.35 100.4V80.95H39.9H50.5V82.75V84.5ZM68.2207 80.75V116.1H54.0707V80.75H68.2207ZM86.6672 93.25H72.2172V80.9H105.817V93.25L91.4172 103.85H105.817V116.25H72.2172V103.85L86.6672 93.25Z" fill="white"/>
</svg>
